HIERARCHY
ROOT Hips
{
	OFFSET 0.00000 0.00000 0.00000
	CHANNELS 6 Xposition Yposition Zposition Zrotation Yrotation Xrotation 
	JOINT RightUpLegDummy
	{
		OFFSET 0 0 0
		CHANNELS 3 Zrotation Yrotation Xrotation
		JOINT RightUpLeg
		{
			OFFSET -3.52197 -3.41223 0.04002
			CHANNELS 3 Zrotation Yrotation Xrotation
			JOINT RightLeg
			{
				OFFSET 0.00006 -17.42390 1.60435
				CHANNELS 3 Zrotation Yrotation Xrotation
				JOINT RightFoot
				{
					OFFSET 0.06154 -16.50078 -1.63900
					CHANNELS 3 Zrotation Yrotation Xrotation
					JOINT RightToes
					{
						OFFSET 0.00298 -1.73825 3.34613
						CHANNELS 3 Zrotation Yrotation Xrotation
						End Site
						{
							OFFSET 0.00000 0.00000 0.00000
						}
					}
				}
			}
		}
	}
	JOINT SpineDummy
	{
		OFFSET 0 0 0
		CHANNELS 3 Zrotation Yrotation Xrotation
		JOINT Spine
		{
			OFFSET 0.00000 4.68130 0.00000
			CHANNELS 3 Zrotation Yrotation Xrotation
			JOINT Spine1
			{
				OFFSET -0.00000 10.10138 0.05002
				CHANNELS 3 Zrotation Yrotation Xrotation
				JOINT HEadDummy
				{
					OFFSET 0 0 0
					CHANNELS 3 Zrotation Yrotation Xrotation
					JOINT Head
					{
						OFFSET -0.00000 3.43865 0.00438
						CHANNELS 3 Zrotation Yrotation Xrotation
						End Site
						{
							OFFSET 0.00000 0.00000 0.00000
						}
					}
				}
				JOINT LeftShoulder1Dummy
				{
					OFFSET 0 0 0
					CHANNELS 3 Zrotation Yrotation Xrotation
					JOINT LeftShoulder1
					{
						OFFSET 3.53937 -0.14262 -0.08662
						CHANNELS 3 Zrotation Yrotation Xrotation
						JOINT LeftArm
						{
							OFFSET 4.04833 -0.00133 0.12681
							CHANNELS 3 Zrotation Yrotation Xrotation
							JOINT LeftForeArm
							{
								OFFSET 10.33880 -0.01036 -0.55515
								CHANNELS 3 Zrotation Yrotation Xrotation
								JOINT LeftHand
								{
									OFFSET 8.69677 0.07543 0.40060
									CHANNELS 3 Zrotation Yrotation Xrotation
									End Site
									{
										OFFSET 0.00000 0.00000 0.00000
									}
								}
							}
						}
					}
				}
				JOINT RightShoulderDummy
				{
					OFFSET 0 0 0
					CHANNELS 3 Zrotation Yrotation Xrotation
					JOINT RightShoulder
					{
						OFFSET -3.53937 -0.14262 -0.08660
						CHANNELS 3 Zrotation Yrotation Xrotation
						JOINT RightArm
						{
							OFFSET -4.04833 -0.00133 0.12683
							CHANNELS 3 Zrotation Yrotation Xrotation
							JOINT RightForeArm
							{
								OFFSET -10.37987 -0.01039 -0.55511
								CHANNELS 3 Zrotation Yrotation Xrotation
								JOINT RightHand
								{
									OFFSET -8.67398 0.07538 0.40058
									CHANNELS 3 Zrotation Yrotation Xrotation
									End Site
									{
										OFFSET 0.00000 0.00000 0.00000
									}
								}
							}
						}
					}
				}
			}
		}
	}
	JOINT LeftUpLegDummy
	{
		OFFSET 0 0 0
		CHANNELS 3 Zrotation Yrotation Xrotation
		JOINT LeftUpLeg
		{
			OFFSET 3.52197 -3.41223 0.04002
			CHANNELS 3 Zrotation Yrotation Xrotation
			JOINT LeftLeg
			{
				OFFSET -0.00012 -17.42399 1.60337
				CHANNELS 3 Zrotation Yrotation Xrotation
				JOINT LeftFoot
				{
					OFFSET -0.09972 -16.50070 -1.63802
					CHANNELS 3 Zrotation Yrotation Xrotation
					JOINT LeftToes
					{
						OFFSET -0.01575 -1.73823 3.34611
						CHANNELS 3 Zrotation Yrotation Xrotation
						End Site
						{
							OFFSET 0.00000 0.00000 0.00000
						}
					}
				}
			}
		}
	}
}
MOTION
Frames: 14
Frame Time: 0.033333
-10.1810 38.6875 -22.2448 -6.7212 -46.9179 1.5136 0.0000 0.0000 0.0000 -0.9895 -4.3971 -21.0554 4.6243 -8.4124 -0.4091 8.7426 -0.8223 -0.6295 -0.0000 0.0000 0.0000 0.0000 0.0000 0.0000 2.0963 -1.4771 4.4536 3.1725 -2.4359 10.2745 0.0000 0.0000 0.0000 -2.0564 2.5783 -8.9632 0.0000 0.0000 0.0000 -49.6064 -12.8825 9.3108 -29.3075 -6.2855 0.3689 1.3700 -41.8548 32.1678 5.3221 0.0205 -0.2441 0.0000 0.0000 0.0000 42.8679 9.7867 6.5535 29.4791 -5.0219 -1.5847 6.3798 4.9206 11.4561 -17.0691 2.5599 -1.1612 0.0000 0.0000 0.0000 -2.6193 5.1041 16.2784 -1.7340 -1.8404 13.3575 10.7958 1.2156 -22.7242 -0.0000 0.0000 -0.0000
-11.6621 38.4013 -21.2966 -7.5215 -45.4140 2.1320 0.0000 0.0000 0.0000 1.3243 -5.7595 -22.6751 2.9781 -7.7809 6.9235 6.2723 -0.7068 1.7564 -0.0000 0.0000 0.0000 0.0000 0.0000 0.0000 3.3722 -1.8539 3.9097 3.4200 -2.9322 10.4996 0.0000 0.0000 0.0000 -2.5390 2.3660 -9.8202 0.0000 0.0000 0.0000 -49.6288 -12.8523 9.2979 -29.1069 -6.2007 -0.0695 1.2364 -39.0949 31.0284 5.3221 0.0205 -0.2441 0.0000 0.0000 0.0000 43.2002 9.8036 6.6098 28.1437 -3.0100 -3.1695 6.2065 4.3241 9.0967 -17.7807 2.8326 -1.2516 0.0000 0.0000 0.0000 -1.3093 4.5054 17.8033 -1.0377 -2.8419 15.8921 8.6114 1.0621 -23.5684 -0.0000 0.0000 -0.0000
-13.2042 38.2493 -20.2490 -9.0274 -44.1650 3.1697 0.0000 0.0000 0.0000 5.6245 -9.5083 -24.0040 1.2542 -2.7297 13.5000 2.7831 -0.3795 4.9465 -0.0000 0.0000 0.0000 0.0000 0.0000 0.0000 5.9847 -2.0595 3.2264 3.0562 -3.0018 10.5638 0.0000 0.0000 0.0000 -2.8714 1.9550 -9.8787 0.0000 0.0000 0.0000 -49.7431 -12.7588 9.2663 -29.1637 -5.4768 0.3550 1.0919 -35.2932 29.6929 5.3221 0.0205 -0.2441 0.0000 0.0000 0.0000 43.5946 9.7728 6.6516 27.1772 -1.7248 -3.8056 6.1648 4.8830 7.1438 -17.7805 2.7431 -1.2387 0.0000 0.0000 0.0000 0.8079 3.3610 18.6507 -1.1684 -3.2428 19.7334 4.4609 0.5840 -22.7066 -0.0000 0.0000 -0.0000
-14.7527 38.2047 -19.1981 -10.5026 -43.6594 3.9818 0.0000 0.0000 0.0000 8.4911 -9.7660 -24.9515 -0.4394 -0.7202 19.8276 -1.1514 0.1800 5.4222 -0.0000 0.0000 0.0000 0.0000 0.0000 0.0000 9.1386 -1.8725 3.0289 2.0665 -2.3336 10.4209 0.0000 0.0000 0.0000 -2.8441 1.3623 -9.6259 0.0000 0.0000 0.0000 -49.7098 -12.6968 9.2248 -29.6252 -3.9418 1.1669 0.9539 -31.5032 28.1150 5.3221 0.0205 -0.2441 0.0000 0.0000 0.0000 43.8857 9.8393 6.7272 26.8983 -0.6773 -3.9932 6.0782 5.9742 6.6008 -16.9925 2.4670 -1.1427 0.0000 0.0000 0.0000 3.6173 3.2798 17.3792 -2.7713 -4.7787 27.2462 -1.0185 0.0804 -17.2722 -0.0000 0.0000 -0.0000
-16.2316 38.1908 -18.2227 -11.2554 -43.1096 4.2849 0.0000 0.0000 0.0000 8.8385 -6.8889 -24.7063 -2.1932 -3.2301 25.2546 -3.7943 0.4690 2.4440 -0.0000 0.0000 0.0000 0.0000 0.0000 0.0000 11.6970 -1.7001 3.2541 0.7694 -1.4882 10.1383 0.0000 0.0000 0.0000 -2.4145 0.7653 -9.7441 0.0000 0.0000 0.0000 -49.5154 -12.7450 9.2158 -30.1324 -1.8531 2.0027 0.8193 -28.5385 26.2222 5.3221 0.0205 -0.2441 0.0000 0.0000 0.0000 43.7378 10.0157 6.7940 27.4418 1.0863 -3.9447 5.9596 7.0269 6.9976 -16.2929 2.3618 -1.0798 0.0000 0.0000 0.0000 5.9621 2.6698 12.6568 -5.5572 -6.0814 38.8026 -5.8659 0.3520 -5.2597 -0.0000 0.0000 -0.0000
-17.5181 38.1556 -17.3579 -11.9073 -41.4393 4.6823 0.0000 0.0000 0.0000 9.5686 -6.8848 -23.8212 -3.4024 -4.6152 28.9493 -4.2330 0.3457 -1.9507 -0.0000 0.0000 0.0000 0.0000 0.0000 0.0000 14.2035 -1.9631 3.5772 -0.1844 -1.0302 10.1633 0.0000 0.0000 0.0000 -1.7302 0.0010 -10.3781 0.0000 0.0000 0.0000 -49.5162 -12.8883 9.2972 -30.2199 0.0080 3.4941 0.6985 -26.0724 24.0156 5.3221 0.0205 -0.2441 0.0000 0.0000 0.0000 43.1763 10.1037 6.7551 28.2269 3.7381 -3.1800 5.9613 8.4207 6.9713 -16.3129 2.4545 -1.0941 0.0000 0.0000 0.0000 7.7677 0.2605 5.0169 -7.9445 -5.5910 51.1978 -8.5359 1.3660 7.7625 -0.0000 0.0000 -0.0000
-18.7342 38.3025 -16.4705 -12.2411 -39.6740 4.7716 0.0000 0.0000 0.0000 10.2679 -9.2041 -21.7113 -3.2387 -4.1501 30.1321 -3.5588 0.1619 -5.4704 -0.0000 0.0000 0.0000 0.0000 0.0000 0.0000 16.2491 -2.0091 3.7641 -0.7555 -0.5529 10.4330 0.0000 0.0000 0.0000 -0.9794 -1.1939 -11.0519 0.0000 0.0000 0.0000 -49.8272 -13.0145 9.4276 -30.1163 1.1576 5.6925 0.4265 -23.3768 22.1234 5.3221 0.0205 -0.2441 0.0000 0.0000 0.0000 42.6750 10.0250 6.6425 28.3939 6.3747 -0.7380 5.7896 11.1534 5.1144 -16.5986 2.3728 -1.1022 0.0000 0.0000 0.0000 9.0458 -1.9256 -2.6169 -7.7620 -3.7879 60.4385 -8.6532 1.7765 12.9022 -0.0000 0.0000 -0.0000
-20.0519 38.7652 -15.4909 -11.3584 -39.4672 3.8180 0.0000 0.0000 0.0000 9.7130 -11.3474 -17.6907 -2.1085 -2.7026 28.5828 -3.0133 0.0736 -7.4748 -0.0000 0.0000 0.0000 0.0000 0.0000 0.0000 16.4907 -1.2081 3.9534 -1.4283 0.5055 10.4790 0.0000 0.0000 0.0000 -0.3440 -2.5263 -11.2549 0.0000 0.0000 0.0000 -50.0261 -13.0184 9.4678 -30.4649 2.0881 6.2537 -0.5745 -20.5472 22.2719 5.3221 0.0205 -0.2441 0.0000 0.0000 0.0000 42.4954 9.9608 6.5849 27.9365 8.2876 3.9428 4.5715 15.3200 0.6629 -16.6297 2.0565 -1.0601 0.0000 0.0000 0.0000 9.1143 -1.6648 -8.4989 -4.5204 -1.8667 64.9439 -6.3013 1.1586 10.3475 -0.0000 0.0000 -0.0000
-21.3852 39.2611 -14.5086 -9.7239 -40.3570 2.3841 0.0000 0.0000 0.0000 8.1737 -12.3143 -12.9976 -0.9299 -1.3528 26.0419 -2.6177 0.0223 -8.9246 -0.0000 0.0000 0.0000 0.0000 0.0000 0.0000 15.6972 -0.1086 4.3013 -2.3015 1.8347 10.2304 0.0000 0.0000 0.0000 -0.0439 -3.3755 -10.8669 0.0000 0.0000 0.0000 -49.7246 -12.9248 9.3572 -31.4586 3.5988 4.6138 -1.8813 -18.1792 23.8282 5.3221 0.0205 -0.2441 0.0000 0.0000 0.0000 42.2999 9.9899 6.5706 27.6950 9.7931 8.4098 2.4601 19.6235 -4.0864 -16.6589 1.8567 -1.0340 0.0000 0.0000 0.0000 8.1654 0.0855 -13.0798 -0.3633 -0.3906 65.2434 -3.2679 0.4448 5.4032 -0.0000 0.0000 -0.0000
-22.6643 39.6446 -13.5264 -8.0644 -41.0891 1.1519 0.0000 0.0000 0.0000 6.1521 -12.1084 -8.5448 0.3002 -1.1348 23.5067 -2.2755 -0.0181 -10.3212 -0.0000 0.0000 0.0000 0.0000 0.0000 0.0000 15.0172 0.6707 4.5134 -3.3652 2.8281 9.7520 0.0000 0.0000 0.0000 -0.2016 -3.6090 -10.0829 0.0000 0.0000 0.0000 -49.1529 -12.8589 9.2123 -32.5993 5.8011 2.8727 -2.8043 -16.4847 24.8249 5.3221 0.0205 -0.2441 0.0000 0.0000 0.0000 41.7380 9.9436 6.4670 28.1401 11.4372 9.8324 1.0254 23.3213 -6.0775 -16.9040 1.8194 -1.0442 0.0000 0.0000 0.0000 6.7995 1.2975 -17.1447 2.2083 0.6041 62.3595 -1.5090 0.1609 2.0672 -0.0000 0.0000 -0.0000
-23.8916 39.9851 -12.5321 -6.5375 -41.5322 0.2403 0.0000 0.0000 0.0000 3.9975 -11.0083 -4.2701 1.6853 -1.8344 20.5013 -1.9675 -0.0405 -11.2693 -0.0000 0.0000 0.0000 0.0000 0.0000 0.0000 14.5076 1.1943 4.4548 -4.6552 3.4929 9.2578 0.0000 0.0000 0.0000 -0.6831 -3.6216 -9.2112 0.0000 0.0000 0.0000 -48.8298 -12.8827 9.1652 -33.3696 8.2024 1.7870 -3.4638 -15.2195 25.5912 5.3221 0.0205 -0.2441 0.0000 0.0000 0.0000 41.0352 9.7581 6.2782 28.7453 13.1814 8.7251 0.8533 26.8701 -5.3513 -16.9569 1.6235 -1.0196 0.0000 0.0000 0.0000 5.2556 2.0428 -20.5694 2.6305 1.0634 56.5859 -1.1850 0.1169 0.1990 -0.0000 0.0000 -0.0000
-25.0645 40.2079 -11.5398 -5.3558 -42.1950 -0.3284 0.0000 0.0000 0.0000 2.2815 -9.6934 -0.3820 2.9241 -2.2857 17.5762 -1.4898 -0.0547 -12.1313 -0.0000 0.0000 0.0000 0.0000 0.0000 0.0000 14.2750 1.7051 4.2882 -5.9774 4.1296 9.0320 0.0000 0.0000 0.0000 -1.2533 -3.6685 -8.5538 0.0000 0.0000 0.0000 -48.8923 -12.9360 9.2067 -33.8230 10.4035 0.9568 -3.9379 -14.2106 26.7041 5.3221 0.0205 -0.2441 0.0000 0.0000 0.0000 40.6078 9.6125 6.1496 28.8565 14.7985 7.8380 0.8604 30.5169 -4.4974 -16.6172 1.1932 -0.9385 0.0000 0.0000 0.0000 3.7768 3.6022 -22.9807 1.7008 0.8873 48.1994 -1.9213 0.1816 -0.8509 -0.0000 0.0000 -0.0000
-26.2110 40.2352 -10.5256 -4.7531 -43.0086 -0.4068 0.0000 0.0000 0.0000 1.3107 -8.7573 2.9286 3.7505 -2.1710 15.4793 -1.1060 -0.0701 -13.4151 -0.0000 0.0000 0.0000 0.0000 0.0000 0.0000 14.5266 2.1646 3.8817 -7.1581 4.7110 9.1871 0.0000 0.0000 0.0000 -1.8263 -3.6338 -8.2706 0.0000 0.0000 0.0000 -49.0551 -12.9527 9.2466 -34.3057 12.3071 -0.0122 -4.2129 -13.4062 27.7339 5.3221 0.0205 -0.2441 0.0000 0.0000 0.0000 40.4447 9.6205 6.1307 28.5277 16.2821 7.4149 0.8498 33.9291 -3.7755 -16.3888 0.7420 -0.8628 0.0000 0.0000 0.0000 2.4162 6.0526 -24.4022 0.6666 0.3046 37.9139 -3.0103 0.2813 -0.8829 -0.0000 0.0000 -0.0000
-27.3625 40.1859 -9.4828 -4.3547 -43.6864 -0.2176 0.0000 0.0000 0.0000 0.7081 -8.2157 6.0789 4.1944 -1.9700 13.4483 -1.3609 -0.0944 -14.6672 -0.0000 0.0000 0.0000 0.0000 0.0000 0.0000 14.7282 2.5294 3.1047 -8.2326 5.1583 9.6840 0.0000 0.0000 0.0000 -2.3926 -3.3877 -8.2729 0.0000 0.0000 0.0000 -49.0752 -12.9187 9.2314 -34.9804 13.9346 -1.1475 -4.3841 -12.6459 28.2421 5.3221 0.0205 -0.2441 0.0000 0.0000 0.0000 40.3434 9.6862 6.1472 28.1912 17.5494 7.3208 0.8380 36.7841 -3.0910 -16.5852 0.3780 -0.8226 0.0000 0.0000 0.0000 0.6022 8.8350 -24.8815 0.0068 -0.9418 25.9707 -3.4551 0.3334 -0.3825 -0.0000 0.0000 -0.0000
